<!DOCTYPE svg PUBLIC "-//W3C//DTD SVG 20010904//EN" "http://www.w3.org/TR/2001/REC-SVG-20010904/DTD/svg10.dtd">
<!-- https://www.vectorizer.io -->
<svg version="1.0" xmlns="http://www.w3.org/2000/svg" width="1024px" height="1024px" viewBox="0 0 10240 10240" preserveAspectRatio="xMidYMid meet">
<g id="layer1" fill="#f7971d" stroke="none">
 <path d="M7575 8585 c-49 -13 -91 -41 -135 -92 -69 -78 -64 -7 -71 -1068 -6 -1057 -3 -1012 -69 -1150 -55 -114 -141 -200 -267 -264 -102 -51 -125 -53 -918 -60 -701 -6 -742 -7 -778 -25 -52 -26 -86 -80 -98 -157 -6 -40 -9 -380 -7 -894 3 -822 3 -830 24 -876 23 -49 57 -79 113 -97 47 -16 1738 -17 1796 -1 51 14 110 73 124 124 7 27 11 250 11 700 0 806 5 863 82 1007 60 113 166 197 308 244 51 17 122 19 1065 24 l1010 5 60 30 c78 39 118 97 134 192 9 49 11 367 9 1113 -3 975 -4 1048 -21 1091 -22 57 -68 106 -127 133 -42 20 -64 21 -355 23 -1004 8 -1852 7 -1890 -2z"/>
 </g>
<g id="layer2" fill="#019bde" stroke="none">
 <path d="M3113 10179 c-47 -14 -80 -60 -88 -121 -3 -29 -5 -328 -3 -665 3 -604 3 -612 24 -640 12 -15 36 -37 55 -48 33 -19 57 -20 600 -25 l567 -5 78 -40 c91 -46 148 -109 185 -202 l24 -58 5 -745 c5 -804 4 -785 58 -833 51 -46 53 -46 877 -47 507 0 793 4 817 10 50 14 97 55 119 105 18 38 19 84 18 825 0 830 0 831 -46 882 -10 12 -38 30 -63 42 -44 21 -60 21 -750 27 -539 4 -714 8 -745 18 -117 38 -226 126 -272 219 l-28 57 -5 565 c-5 540 -6 567 -25 604 -11 22 -33 49 -48 60 -28 21 -39 21 -675 23 -376 1 -660 -2 -679 -8z"/>
 </g>
<g id="layer3" fill="#ec1b24" stroke="none">
 <path d="M582 6968 c-146 -25 -269 -135 -313 -278 -19 -64 -19 -96 -17 -1625 3 -1464 4 -1563 21 -1612 34 -99 121 -187 220 -220 48 -16 150 -18 1417 -24 1493 -6 1430 -3 1602 -65 144 -52 225 -102 332 -203 115 -110 177 -216 218 -375 21 -80 22 -99 27 -1162 l6 -1081 35 -69 c38 -75 94 -122 173 -146 33 -10 315 -13 1302 -13 l1260 0 68 33 c75 37 108 74 139 154 20 53 21 63 19 1333 -2 1039 -5 1285 -16 1311 -20 48 -83 112 -139 142 l-51 27 -1095 5 c-1093 6 -1095 6 -1180 28 -147 39 -242 93 -345 197 -93 93 -140 161 -182 265 -56 139 -54 80 -53 1575 0 944 -3 1405 -10 1460 -12 86 -50 180 -93 231 -32 38 -125 88 -194 104 -39 9 -425 12 -1580 14 -840 1 -1547 -2 -1571 -6z"/>
 </g>
<g id="layer4" fill="#231f20" stroke="none">
 <path d="M5015 9839 c-129 -10 -175 -21 -200 -49 -18 -20 -19 -43 -20 -323 -2 -367 -6 -352 99 -344 39 3 121 11 181 18 138 14 494 6 665 -16 509 -65 881 -175 1301 -386 76 -38 148 -69 158 -69 11 0 45 22 75 49 31 26 82 62 114 79 101 54 157 62 455 62 148 0 267 4 267 9 0 17 -199 171 -360 278 -516 345 -1208 593 -1860 667 -308 35 -622 44 -875 25z"/>
 <path d="M2608 8952 c-581 -446 -993 -931 -1326 -1563 -40 -75 -72 -139 -72 -142 0 -4 177 -7 394 -7 l394 0 22 28 c12 15 61 88 110 162 49 75 137 196 196 270 135 170 430 465 594 594 69 55 131 105 139 112 11 10 1 18 -54 45 -181 90 -262 247 -253 489 2 71 0 110 -7 109 -5 0 -67 -44 -137 -97z"/>
 <path d="M9427 5720 c-214 -4 -259 -8 -267 -20 -6 -9 -7 -54 -2 -110 13 -174 7 -554 -12 -710 -134 -1110 -637 -1972 -1569 -2684 -218 -167 -211 -147 -208 -570 1 -180 5 -334 8 -342 10 -26 55 -14 152 37 410 221 840 563 1185 945 598 660 991 1506 1115 2395 34 242 43 420 40 725 -5 355 -2 345 -112 342 -39 -1 -188 -5 -330 -8z"/>
 <path d="M1476 2927 c-25 -18 -12 -47 97 -201 181 -259 356 -465 578 -681 353 -344 703 -593 1149 -815 247 -124 435 -200 491 -200 l27 0 4 348 c2 191 1 357 -3 369 -6 15 -59 46 -191 111 -467 229 -797 480 -1153 875 -100 112 -164 159 -250 186 -53 17 -99 19 -396 20 -258 1 -339 -2 -353 -12z"/>
 </g>

</svg>